<?xml version="1.0" encoding="utf-8"?>
<!-- Generator: Adobe Illustrator 19.2.1, SVG Export Plug-In . SVG Version: 6.00 Build 0)  -->
<svg version="1.1" id="Layer_3" xmlns="http://www.w3.org/2000/svg" xmlns:xlink="http://www.w3.org/1999/xlink" x="0px" y="0px"
	 viewBox="0 0 300 200" style="enable-background:new 0 0 300 200;" xml:space="preserve">
<style type="text/css">
	.st0{fill:#FFFFFF;}
	.st1{fill:#E12228;}
	.st2{fill:#FBC4A9;}
	.st3{fill:#885241;}
	.st4{fill:#C99380;}
	.st5{fill:none;}
</style>
<g>
	<circle class="st0" cx="149.8" cy="78.8" r="42.3"/>
	<polygon id="XMLID_119_" class="st1" points="157.6,71 177.5,71 177.5,86.6 157.6,86.6 157.6,106.5 142,106.5 142,86.6 122.1,86.6 
		122.1,71 142,71 142,51.1 157.6,51.1 	"/>
</g>
<g>
	<g>
		<path class="st2" d="M243.3,81.9c-0.1-0.3-0.2-0.6-0.4-0.9l-34.1-68.7c-2.8-5.7-9.8-8.1-15.6-5.2c-5.7,2.8-8.1,9.8-5.2,15.6
			l13,26.2l0,0c8.7,0,15.1,7,15.1,15.7v49.8H213V64.6c0-7-4.8-12.6-11.8-12.7h-1.6c-6.4,0-11.6,5.2-11.6,11.6l-0.1,22
			c-0.1,0.5-0.2,1.1-0.2,1.7c0,30.6-14.7,28.3-14.7,46.3c0,9.5,4.1,18.1,10.6,24.1c1,1,2,1.9,3.2,2.6v32.3H223v-26.7l21.4-71.1
			c0.4-1.3,0.5-2.5,0.5-3.8C245.1,87.8,244.5,84.7,243.3,81.9z"/>
		<path class="st3" d="M213,64.5v49.8h3.1V64.5c0-8.7-6.4-15.7-15.1-15.7l0,0l0.2,3h0.1C208.2,51.9,213,57.6,213,64.5z"/>
	</g>
	<path class="st4" d="M243.3,81.9c-0.1-0.3-0.2-0.6-0.4-0.9l-34.1-68.7c-2.8-5.6-9.6-8-15.3-5.3c2.3,1.1,4.3,2.9,5.5,5.3L233.1,81
		c0.1,0.3,0.3,0.6,0.4,0.9c1.2,2.8,1.8,5.9,1.6,9c0,1.2-0.1,2.5-0.5,3.8l-21.4,71.1v26.7h9.8v-26.7l21.4-71.1
		c0.4-1.3,0.5-2.5,0.5-3.8C245.1,87.8,244.5,84.7,243.3,81.9z"/>
</g>
<g>
	<g>
		<path class="st2" d="M127.7,133.4c0-18.1-14.7-15.8-14.7-46.3c0-0.6-0.1-1.2-0.2-1.7l-0.1-22c0-6.4-5.3-11.6-11.6-11.6h-1.6
			c-6.9,0.1-11.8,5.7-11.8,12.7v49.8h-3.1V64.5c0-8.7,6.4-15.7,15.1-15.7l0,0l13-26.2c2.8-5.7,0.5-12.7-5.2-15.6
			c-5.7-2.8-12.7-0.5-15.6,5.2L57.8,81c-0.1,0.3-0.3,0.6-0.4,0.9c-1.2,2.8-1.8,5.9-1.6,9c0,1.2,0.1,2.5,0.5,3.8l21.4,71.1v26.7h36.2
			v-32.3c1.2-0.8,2.2-1.7,3.2-2.6C123.6,151.5,127.7,143,127.7,133.4z"/>
		<path class="st2" d="M127.7,133.4c0-18.1-14.7-15.8-14.7-46.3c0-0.6-0.1-1.2-0.2-1.7l-0.1-22c0-6.4-5.3-11.6-11.6-11.6h-1.6
			c-6.9,0.1-11.8,5.7-11.8,12.7v49.8h-3.1V64.5c0-8.7,6.4-15.7,15.1-15.7l0,0l13-26.2c2.8-5.7,0.5-12.7-5.2-15.6
			c-5.7-2.8-12.7-0.5-15.6,5.2L57.8,81c-0.1,0.3-0.3,0.6-0.4,0.9c-1.2,2.8-1.8,5.9-1.6,9c0,1.2,0.1,2.5,0.5,3.8l21.4,71.1v26.7h36.2
			v-32.3c1.2-0.8,2.2-1.7,3.2-2.6C123.6,151.5,127.7,143,127.7,133.4z"/>
		<path class="st3" d="M84.6,64.6v49.8h3.1V64.6c0-7,4.8-12.6,11.8-12.7h0.1l0.2-3l0,0C91,48.9,84.6,55.9,84.6,64.6z"/>
	</g>
	<g>
		<path class="st5" d="M99.5,51.8L99.5,51.8h1.5c0.5,0,0.9,0,1.4,0.1l0.3-9.2l-3,6.1L99.5,51.8z M100.8,49.2
			C100.8,49.2,100.7,49.2,100.8,49.2C100.7,49.2,100.8,49.2,100.8,49.2z"/>
		<path class="st3" d="M99.7,48.8L99.7,48.8c-8.7,0-15.1,7-15.1,15.7v49.8h3.1V64.5c0-7,4.8-12.6,11.8-12.7h0.1L99.7,48.8z"/>
		<path class="st4" d="M112.7,22.7c2.8-5.7,0.5-12.7-5.2-15.6c-1.1-0.6-2.3-0.9-3.5-1.1l-1.3,36.7L112.7,22.7z"/>
		<path class="st4" d="M113.9,160.2c1.2-0.8,2.2-1.7,3.2-2.6c6.5-6,10.6-14.6,10.6-24.1c0-18.1-14.7-15.8-14.7-46.3
			c0-0.6-0.1-1.2-0.2-1.7l-0.1-22c0-5.9-4.5-10.8-10.3-11.5l-4.8,140.6h16.3C113.9,192.6,113.9,160.2,113.9,160.2z"/>
	</g>
</g>
</svg>
